<?xml version="1.0" encoding="UTF-8"?>
<svg width="205px" height="62px" viewBox="0 0 205 62" version="1.1" xmlns="http://www.w3.org/2000/svg" xmlns:xlink="http://www.w3.org/1999/xlink">
    <title>2</title>
    <g id="Page-1" stroke="none" stroke-width="1" fill="none" fill-rule="evenodd">
        <g id="01_homepage_warren_hill" transform="translate(-25.000000, -22.000000)">
            <g id="2" transform="translate(25.000000, 22.000000)">
                <g id="v2" fill="#FFFFFF">
                    <g id="Warren-Hill-Copy" transform="translate(74.200000, 18.700000)" fill-rule="nonzero">
                        <path d="M9.46,0.1 L9.18,0.1 L6.38,7.58 C5.86,8.98 5.74,9.36 5.66,10.2 L5.58,10.2 C5.5,9.36 5.34,8.86 4.9,7.6 L2.38,0.3 L0,0.3 L5.5,14.5 L5.74,14.5 L8.92,6.3 C9.2,5.56 9.24,5.18 9.28,4.58 L9.36,4.58 C9.4,5.18 9.44,5.56 9.72,6.3 L12.9,14.5 L13.14,14.5 L18.64,0.3 L16.26,0.3 L13.74,7.6 C13.3,8.86 13.14,9.36 13.06,10.2 L12.98,10.2 C12.9,9.36 12.78,8.98 12.26,7.58 L9.46,0.1 Z" id="Path"></path>
                        <path d="M17.5066667,14.3 L19.8466667,14.3 L21.4866667,10.62 L27.0466667,10.62 L28.6866667,14.3 L31.0266667,14.3 L24.3666667,0 L24.1666667,0 L17.5066667,14.3 Z M22.0666667,8.88 L22.0466667,8.86 C22.2066667,8.66 22.4266667,8.34 22.6866667,7.72 L23.7266667,5.26 C24.0066667,4.58 24.1866667,4 24.2266667,3.66 L24.3066667,3.66 C24.3466667,4 24.5266667,4.58 24.8066667,5.26 L25.8466667,7.72 C26.1066667,8.34 26.3266667,8.66 26.4866667,8.86 L26.4666667,8.88 C26.2866667,8.86 25.9466667,8.84 25.3466667,8.84 L23.1866667,8.84 C22.5866667,8.84 22.2466667,8.86 22.0666667,8.88 Z" id="Shape"></path>
                        <path d="M37.9733333,0.3 L33.3933333,0.3 L33.3933333,14.3 L35.4733333,14.3 L35.4733333,8.54 C35.4733333,8.28 35.4533333,8.12 35.4133333,8 L35.4533333,7.96 C35.5733333,8.02 35.6933333,8.04 35.9333333,8.04 L36.1333333,8.04 L41.0733333,14.3 L43.7733333,14.3 L39.5333333,9 C39.0333333,8.38 38.6333333,8.04 38.0933333,7.86 L38.0933333,7.78 C38.3133333,7.84 38.5733333,7.88 38.7933333,7.88 C40.3533333,7.88 42.2733333,6.48 42.2733333,4.2 C42.2733333,1.76 40.5933333,0.3 37.9733333,0.3 Z M35.4533333,2.18 C35.5933333,2.24 35.7133333,2.26 35.9533333,2.26 L37.9933333,2.26 C39.3733333,2.26 40.0333333,3.08 40.0333333,4.18 C40.0333333,5.36 39.2933333,6.04 37.9933333,6.04 L35.9533333,6.04 C35.7133333,6.04 35.5933333,6.06 35.4533333,6.12 L35.4133333,6.08 C35.4533333,5.98 35.4733333,5.82 35.4733333,5.58 L35.4733333,2.74 C35.4733333,2.48 35.4533333,2.32 35.4133333,2.22 L35.4533333,2.18 Z" id="Shape"></path>
                        <path d="M50.32,0.3 L45.74,0.3 L45.74,14.3 L47.82,14.3 L47.82,8.54 C47.82,8.28 47.8,8.12 47.76,8 L47.8,7.96 C47.92,8.02 48.04,8.04 48.28,8.04 L48.48,8.04 L53.42,14.3 L56.12,14.3 L51.88,9 C51.38,8.38 50.98,8.04 50.44,7.86 L50.44,7.78 C50.66,7.84 50.92,7.88 51.14,7.88 C52.7,7.88 54.62,6.48 54.62,4.2 C54.62,1.76 52.94,0.3 50.32,0.3 Z M47.8,2.18 C47.94,2.24 48.06,2.26 48.3,2.26 L50.34,2.26 C51.72,2.26 52.38,3.08 52.38,4.18 C52.38,5.36 51.64,6.04 50.34,6.04 L48.3,6.04 C48.06,6.04 47.94,6.06 47.8,6.12 L47.76,6.08 C47.8,5.98 47.82,5.82 47.82,5.58 L47.82,2.74 C47.82,2.48 47.8,2.32 47.76,2.22 L47.8,2.18 Z" id="Shape"></path>
                        <path d="M66.0266667,0.3 L58.0866667,0.3 L58.0866667,14.3 L66.1066667,14.3 L66.1066667,12.34 L60.6466667,12.34 C60.4066667,12.34 60.2866667,12.36 60.1466667,12.42 L60.1066667,12.38 C60.1466667,12.28 60.1666667,12.12 60.1666667,11.86 L60.1666667,8.14 C60.1666667,7.9 60.1466667,7.72 60.1066667,7.62 L60.1466667,7.58 C60.2866667,7.64 60.4066667,7.66 60.6466667,7.66 L65.3666667,7.66 L65.3666667,5.7 L60.6466667,5.7 C60.4066667,5.7 60.2866667,5.72 60.1466667,5.78 L60.1066667,5.74 C60.1466667,5.64 60.1666667,5.48 60.1666667,5.24 L60.1666667,2.74 C60.1666667,2.48 60.1466667,2.32 60.1066667,2.22 L60.1466667,2.18 C60.2866667,2.24 60.4066667,2.26 60.6466667,2.26 L66.0266667,2.26 L66.0266667,0.3 Z" id="Path"></path>
                        <path d="M69.2533333,0.1 L69.0733333,0.1 L69.0733333,14.3 L71.1533333,14.3 L71.1533333,6.94 C71.1533333,5.8 71.0733333,4.9 70.9533333,4.44 L71.0333333,4.42 C71.2133333,4.86 71.6533333,5.5 72.1333333,5.98 L80.6533333,14.5 L80.8333333,14.5 L80.8333333,0.3 L78.7533333,0.3 L78.7533333,7.64 C78.7533333,8.8 78.8333333,9.7 78.9533333,10.16 L78.8733333,10.18 C78.6933333,9.74 78.2533333,9.1 77.7733333,8.62 L69.2533333,0.1 Z" id="Path"></path>
                        <path d="M102.406667,0.3 L100.326667,0.3 L100.326667,5.44 C100.326667,5.68 100.346667,5.84 100.386667,5.94 L100.346667,5.98 C100.206667,5.92 100.086667,5.9 99.8466667,5.9 L93.7266667,5.9 C93.4866667,5.9 93.3666667,5.92 93.2266667,5.98 L93.1866667,5.94 C93.2266667,5.84 93.2466667,5.68 93.2466667,5.44 L93.2466667,0.3 L91.1666667,0.3 L91.1666667,14.3 L93.2466667,14.3 L93.2466667,8.36 C93.2466667,8.12 93.2266667,7.96 93.1866667,7.86 L93.2266667,7.82 C93.3666667,7.88 93.4866667,7.9 93.7266667,7.9 L99.8466667,7.9 C100.086667,7.9 100.206667,7.88 100.346667,7.82 L100.386667,7.86 C100.346667,7.96 100.326667,8.12 100.326667,8.36 L100.326667,14.3 L102.406667,14.3 L102.406667,0.3 Z" id="Path"></path>
                        <polygon id="Path" points="108.153333 0.3 106.073333 0.3 106.073333 14.3 108.153333 14.3"></polygon>
                        <path d="M113.9,0.3 L111.82,0.3 L111.82,14.3 L119.9,14.3 L119.9,12.3 L114.38,12.3 C114.14,12.3 114.02,12.32 113.88,12.38 L113.84,12.34 C113.88,12.24 113.9,12.08 113.9,11.84 L113.9,0.3 Z" id="Path"></path>
                        <path d="M124.346667,0.3 L122.266667,0.3 L122.266667,14.3 L130.346667,14.3 L130.346667,12.3 L124.826667,12.3 C124.586667,12.3 124.466667,12.32 124.326667,12.38 L124.286667,12.34 C124.326667,12.24 124.346667,12.08 124.346667,11.84 L124.346667,0.3 Z" id="Path"></path>
                    </g>
                    <g id="seo-specialist" transform="translate(75.525000, 40.645000)" fill-rule="nonzero">
                        <path d="M2.52,4.515 C1.638,4.515 1.05,4.221 1.05,3.78 L0,3.78 C0,4.788 1.008,5.46 2.52,5.46 C4.158,5.46 5.04,4.8615 5.04,3.7485 C5.04,2.6775 4.305,2.205 2.5725,2.205 C1.575,2.205 1.155,2.0475 1.155,1.6485 C1.155,1.1865 1.6275,0.945 2.52,0.945 C3.339,0.945 3.885,1.239 3.885,1.68 L4.935,1.68 C4.935,0.672 3.969,0 2.52,0 C0.945,0 0.105,0.5775 0.105,1.6485 C0.105,2.709 0.819,3.15 2.478,3.15 C3.528,3.15 3.99,3.3285 3.99,3.7485 C3.99,4.242 3.4755,4.515 2.52,4.515 Z" id="Path"></path>
                        <polygon id="Path" points="12.9975 1.05 12.9975 0.105 7.8525 0.105 7.8525 5.355 12.9975 5.355 12.9975 4.41 8.9025 4.41 8.9025 3.2025 11.9475 3.2025 11.9475 2.2575 8.9025 2.2575 8.9025 1.05"></polygon>
                        <path d="M18.12,0 C16.545,0 15.39,1.155 15.39,2.73 C15.39,4.305 16.545,5.46 18.12,5.46 C19.695,5.46 20.85,4.305 20.85,2.73 C20.85,1.155 19.695,0 18.12,0 Z M18.12,4.4625 C17.175,4.4625 16.4925,3.7275 16.4925,2.73 C16.4925,1.7325 17.175,0.9975 18.12,0.9975 C19.065,0.9975 19.7475,1.7325 19.7475,2.73 C19.7475,3.7275 19.065,4.4625 18.12,4.4625 Z" id="Shape"></path>
                        <path d="M30.045,4.515 C29.163,4.515 28.575,4.221 28.575,3.78 L27.525,3.78 C27.525,4.788 28.533,5.46 30.045,5.46 C31.683,5.46 32.565,4.8615 32.565,3.7485 C32.565,2.6775 31.83,2.205 30.0975,2.205 C29.1,2.205 28.68,2.0475 28.68,1.6485 C28.68,1.1865 29.1525,0.945 30.045,0.945 C30.864,0.945 31.41,1.239 31.41,1.68 L32.46,1.68 C32.46,0.672 31.494,0 30.045,0 C28.47,0 27.63,0.5775 27.63,1.6485 C27.63,2.709 28.344,3.15 30.003,3.15 C31.053,3.15 31.515,3.3285 31.515,3.7485 C31.515,4.242 31.0005,4.515 30.045,4.515 Z" id="Path"></path>
                        <path d="M36.4275,3.2025 L39.1575,3.2025 C40.1025,3.2025 40.7325,2.583 40.7325,1.68 C40.7325,0.735 40.1025,0.105 39.1575,0.105 L35.3775,0.105 L35.3775,5.355 L36.4275,5.355 L36.4275,3.2025 Z M36.4275,1.05 L39.1575,1.05 C39.4725,1.05 39.6825,1.26 39.6825,1.575 L39.6825,1.7325 C39.6825,2.0475 39.4725,2.2575 39.1575,2.2575 L36.4275,2.2575 L36.4275,1.05 Z" id="Shape"></path>
                        <polygon id="Path" points="48.6375 1.05 48.6375 0.105 43.4925 0.105 43.4925 5.355 48.6375 5.355 48.6375 4.41 44.5425 4.41 44.5425 3.2025 47.5875 3.2025 47.5875 2.2575 44.5425 2.2575 44.5425 1.05"></polygon>
                        <path d="M53.76,4.4625 C52.815,4.4625 52.1325,3.7275 52.1325,2.73 C52.1325,1.7325 52.815,0.9975 53.76,0.9975 C54.5475,0.9975 55.1565,1.5015 55.335,2.2575 L56.4585,2.2575 C56.2485,0.924 55.1775,0 53.76,0 C52.185,0 51.03,1.155 51.03,2.73 C51.03,4.305 52.185,5.46 53.76,5.46 C55.1775,5.46 56.2485,4.536 56.4585,3.2025 L55.335,3.2025 C55.1565,3.948 54.5475,4.4625 53.76,4.4625 Z" id="Path"></path>
                        <polygon id="Path" points="60.321 5.355 60.321 0.105 59.271 0.105 59.271 5.355"></polygon>
                        <path d="M64.0365,5.355 L64.467,4.305 L67.239,4.305 L67.6695,5.355 L68.8035,5.355 L66.651,0.105 L65.076,0.105 L62.9235,5.355 L64.0365,5.355 Z M64.8555,3.36 L65.8005,1.05 L65.9055,1.05 L66.8505,3.36 L64.8555,3.36 Z" id="Shape"></path>
                        <polygon id="Path" points="71.406 5.355 75.606 5.355 75.606 4.41 72.456 4.41 72.456 0.105 71.406 0.105"></polygon>
                        <polygon id="Path" points="79.3635 5.355 79.3635 0.105 78.3135 0.105 78.3135 5.355"></polygon>
                        <path d="M84.696,4.515 C83.814,4.515 83.226,4.221 83.226,3.78 L82.176,3.78 C82.176,4.788 83.184,5.46 84.696,5.46 C86.334,5.46 87.216,4.8615 87.216,3.7485 C87.216,2.6775 86.481,2.205 84.7485,2.205 C83.751,2.205 83.331,2.0475 83.331,1.6485 C83.331,1.1865 83.8035,0.945 84.696,0.945 C85.515,0.945 86.061,1.239 86.061,1.68 L87.111,1.68 C87.111,0.672 86.145,0 84.696,0 C83.121,0 82.281,0.5775 82.281,1.6485 C82.281,2.709 82.995,3.15 84.654,3.15 C85.704,3.15 86.166,3.3285 86.166,3.7485 C86.166,4.242 85.6515,4.515 84.696,4.515 Z" id="Path"></path>
                        <polygon id="Path" points="89.451 1.05 91.551 1.05 91.551 5.355 92.601 5.355 92.601 1.05 94.701 1.05 94.701 0.105 89.451 0.105"></polygon>
                    </g>
                    <rect id="Rectangle" x="0" y="0" width="62" height="62"></rect>
                </g>
                <g id="WH" transform="translate(11.000000, 23.000000)" fill="#171C2A" fill-rule="nonzero">
                    <path d="M11.3188199,0 L10.9013225,0 L7.60773143,8.29902643 C7.12065107,9.55215577 6.98148525,9.95410292 6.88870804,10.9235049 L6.79593082,10.9235049 C6.67995931,9.95410292 6.51759919,9.43393602 6.14649034,8.27538248 L3.38636826,0.236439499 L0,0.236439499 L6.49440488,17 L7.00467955,17 L10.5997965,8.15716273 C10.9013225,7.37691238 10.9940997,6.90403338 11.0636826,6.21835883 L11.1564598,6.21835883 C11.2260427,6.90403338 11.3188199,7.37691238 11.6435402,8.15716273 L15.2154629,17 L15.7257375,17 L22.2201424,0.236439499 L18.8337742,0.236439499 L16.0968464,8.27538248 C15.7025432,9.43393602 15.5401831,9.95410292 15.4474059,10.9235049 L15.3546287,10.9235049 C15.2386572,9.95410292 15.0994914,9.55215577 14.612411,8.29902643 L11.3188199,0 Z" id="Path"></path>
                    <path d="M38,0.236439499 L35.0311292,0.236439499 L35.0311292,6.02920723 C35.0311292,6.33657858 35.0543235,6.57301808 35.1239064,6.69123783 L35.0775178,6.73852573 C34.938352,6.66759388 34.7759919,6.64394993 34.4512716,6.64394993 L28.0264496,6.64394993 C27.7017294,6.64394993 27.5625636,6.66759388 27.4233978,6.73852573 L27.3770092,6.69123783 C27.4233978,6.57301808 27.4697864,6.33657858 27.4697864,6.02920723 L27.4697864,0.236439499 L24.5009156,0.236439499 L24.5009156,16.7872045 L27.4697864,16.7872045 L27.4697864,10.0486787 C27.4697864,9.74130737 27.4233978,9.50486787 27.3770092,9.38664812 L27.4233978,9.33936022 C27.5625636,9.41029207 27.7017294,9.45757997 28.0264496,9.45757997 L34.4512716,9.45757997 C34.7759919,9.45757997 34.938352,9.41029207 35.0775178,9.33936022 L35.1239064,9.38664812 C35.0543235,9.50486787 35.0311292,9.74130737 35.0311292,10.0486787 L35.0311292,16.7872045 L38,16.7872045 L38,0.236439499 Z" id="Path"></path>
                </g>
            </g>
        </g>
    </g>
</svg>