<svg style="display: none;" aria-hidden="true" xmlns="http://www.w3.org/2000/svg" xmlns:xlink="http://www.w3.org/1999/xlink"><symbol viewBox="0 0 205 62" id="svg-2"><g fill="none" fill-rule="evenodd"><g fill="#FFF"><g fill-rule="nonzero"><path d="M9.46.1L9.18.1 6.38 7.58C5.86 8.98 5.74 9.36 5.66 10.2L5.58 10.2C5.5 9.36 5.34 8.86 4.9 7.6L2.38.3 0 .3 5.5 14.5 5.74 14.5 8.92 6.3C9.2 5.56 9.24 5.18 9.28 4.58L9.36 4.58C9.4 5.18 9.44 5.56 9.72 6.3L12.9 14.5 13.14 14.5 18.64.3 16.26.3 13.74 7.6C13.3 8.86 13.14 9.36 13.06 10.2L12.98 10.2C12.9 9.36 12.78 8.98 12.26 7.58L9.46.1zM17.5066667 14.3L19.8466667 14.3 21.4866667 10.62 27.0466667 10.62 28.6866667 14.3 31.0266667 14.3 24.3666667 0 24.1666667 0 17.5066667 14.3zM22.0666667 8.88L22.0466667 8.86C22.2066667 8.66 22.4266667 8.34 22.6866667 7.72L23.7266667 5.26C24.0066667 4.58 24.1866667 4 24.2266667 3.66L24.3066667 3.66C24.3466667 4 24.5266667 4.58 24.8066667 5.26L25.8466667 7.72C26.1066667 8.34 26.3266667 8.66 26.4866667 8.86L26.4666667 8.88C26.2866667 8.86 25.9466667 8.84 25.3466667 8.84L23.1866667 8.84C22.5866667 8.84 22.2466667 8.86 22.0666667 8.88zM37.9733333.3L33.3933333.3 33.3933333 14.3 35.4733333 14.3 35.4733333 8.54C35.4733333 8.28 35.4533333 8.12 35.4133333 8L35.4533333 7.96C35.5733333 8.02 35.6933333 8.04 35.9333333 8.04L36.1333333 8.04 41.0733333 14.3 43.7733333 14.3 39.5333333 9C39.0333333 8.38 38.6333333 8.04 38.0933333 7.86L38.0933333 7.78C38.3133333 7.84 38.5733333 7.88 38.7933333 7.88 40.3533333 7.88 42.2733333 6.48 42.2733333 4.2 42.2733333 1.76 40.5933333.3 37.9733333.3zM35.4533333 2.18C35.5933333 2.24 35.7133333 2.26 35.9533333 2.26L37.9933333 2.26C39.3733333 2.26 40.0333333 3.08 40.0333333 4.18 40.0333333 5.36 39.2933333 6.04 37.9933333 6.04L35.9533333 6.04C35.7133333 6.04 35.5933333 6.06 35.4533333 6.12L35.4133333 6.08C35.4533333 5.98 35.4733333 5.82 35.4733333 5.58L35.4733333 2.74C35.4733333 2.48 35.4533333 2.32 35.4133333 2.22L35.4533333 2.18zM50.32.3L45.74.3 45.74 14.3 47.82 14.3 47.82 8.54C47.82 8.28 47.8 8.12 47.76 8L47.8 7.96C47.92 8.02 48.04 8.04 48.28 8.04L48.48 8.04 53.42 14.3 56.12 14.3 51.88 9C51.38 8.38 50.98 8.04 50.44 7.86L50.44 7.78C50.66 7.84 50.92 7.88 51.14 7.88 52.7 7.88 54.62 6.48 54.62 4.2 54.62 1.76 52.94.3 50.32.3zM47.8 2.18C47.94 2.24 48.06 2.26 48.3 2.26L50.34 2.26C51.72 2.26 52.38 3.08 52.38 4.18 52.38 5.36 51.64 6.04 50.34 6.04L48.3 6.04C48.06 6.04 47.94 6.06 47.8 6.12L47.76 6.08C47.8 5.98 47.82 5.82 47.82 5.58L47.82 2.74C47.82 2.48 47.8 2.32 47.76 2.22L47.8 2.18zM66.0266667.3L58.0866667.3 58.0866667 14.3 66.1066667 14.3 66.1066667 12.34 60.6466667 12.34C60.4066667 12.34 60.2866667 12.36 60.1466667 12.42L60.1066667 12.38C60.1466667 12.28 60.1666667 12.12 60.1666667 11.86L60.1666667 8.14C60.1666667 7.9 60.1466667 7.72 60.1066667 7.62L60.1466667 7.58C60.2866667 7.64 60.4066667 7.66 60.6466667 7.66L65.3666667 7.66 65.3666667 5.7 60.6466667 5.7C60.4066667 5.7 60.2866667 5.72 60.1466667 5.78L60.1066667 5.74C60.1466667 5.64 60.1666667 5.48 60.1666667 5.24L60.1666667 2.74C60.1666667 2.48 60.1466667 2.32 60.1066667 2.22L60.1466667 2.18C60.2866667 2.24 60.4066667 2.26 60.6466667 2.26L66.0266667 2.26 66.0266667.3zM69.2533333.1L69.0733333.1 69.0733333 14.3 71.1533333 14.3 71.1533333 6.94C71.1533333 5.8 71.0733333 4.9 70.9533333 4.44L71.0333333 4.42C71.2133333 4.86 71.6533333 5.5 72.1333333 5.98L80.6533333 14.5 80.8333333 14.5 80.8333333.3 78.7533333.3 78.7533333 7.64C78.7533333 8.8 78.8333333 9.7 78.9533333 10.16L78.8733333 10.18C78.6933333 9.74 78.2533333 9.1 77.7733333 8.62L69.2533333.1zM102.406667.3L100.326667.3 100.326667 5.44C100.326667 5.68 100.346667 5.84 100.386667 5.94L100.346667 5.98C100.206667 5.92 100.086667 5.9 99.8466667 5.9L93.7266667 5.9C93.4866667 5.9 93.3666667 5.92 93.2266667 5.98L93.1866667 5.94C93.2266667 5.84 93.2466667 5.68 93.2466667 5.44L93.2466667.3 91.1666667.3 91.1666667 14.3 93.2466667 14.3 93.2466667 8.36C93.2466667 8.12 93.2266667 7.96 93.1866667 7.86L93.2266667 7.82C93.3666667 7.88 93.4866667 7.9 93.7266667 7.9L99.8466667 7.9C100.086667 7.9 100.206667 7.88 100.346667 7.82L100.386667 7.86C100.346667 7.96 100.326667 8.12 100.326667 8.36L100.326667 14.3 102.406667 14.3 102.406667.3zM108.153333.3L106.073333.3 106.073333 14.3 108.153333 14.3zM113.9.3L111.82.3 111.82 14.3 119.9 14.3 119.9 12.3 114.38 12.3C114.14 12.3 114.02 12.32 113.88 12.38L113.84 12.34C113.88 12.24 113.9 12.08 113.9 11.84L113.9.3zM124.346667.3L122.266667.3 122.266667 14.3 130.346667 14.3 130.346667 12.3 124.826667 12.3C124.586667 12.3 124.466667 12.32 124.326667 12.38L124.286667 12.34C124.326667 12.24 124.346667 12.08 124.346667 11.84L124.346667.3z" transform="translate(74.2 18.7)"/></g><g fill-rule="nonzero"><path d="M2.52 4.515C1.638 4.515 1.05 4.221 1.05 3.78L0 3.78C0 4.788 1.008 5.46 2.52 5.46 4.158 5.46 5.04 4.8615 5.04 3.7485 5.04 2.6775 4.305 2.205 2.5725 2.205 1.575 2.205 1.155 2.0475 1.155 1.6485 1.155 1.1865 1.6275.945 2.52.945 3.339.945 3.885 1.239 3.885 1.68L4.935 1.68C4.935.672 3.969 0 2.52 0 .945 0 .105.5775.105 1.6485.105 2.709.819 3.15 2.478 3.15 3.528 3.15 3.99 3.3285 3.99 3.7485 3.99 4.242 3.4755 4.515 2.52 4.515zM12.9975 1.05L12.9975.105 7.8525.105 7.8525 5.355 12.9975 5.355 12.9975 4.41 8.9025 4.41 8.9025 3.2025 11.9475 3.2025 11.9475 2.2575 8.9025 2.2575 8.9025 1.05zM18.12 0C16.545 0 15.39 1.155 15.39 2.73 15.39 4.305 16.545 5.46 18.12 5.46 19.695 5.46 20.85 4.305 20.85 2.73 20.85 1.155 19.695 0 18.12 0zM18.12 4.4625C17.175 4.4625 16.4925 3.7275 16.4925 2.73 16.4925 1.7325 17.175.9975 18.12.9975 19.065.9975 19.7475 1.7325 19.7475 2.73 19.7475 3.7275 19.065 4.4625 18.12 4.4625zM30.045 4.515C29.163 4.515 28.575 4.221 28.575 3.78L27.525 3.78C27.525 4.788 28.533 5.46 30.045 5.46 31.683 5.46 32.565 4.8615 32.565 3.7485 32.565 2.6775 31.83 2.205 30.0975 2.205 29.1 2.205 28.68 2.0475 28.68 1.6485 28.68 1.1865 29.1525.945 30.045.945 30.864.945 31.41 1.239 31.41 1.68L32.46 1.68C32.46.672 31.494 0 30.045 0 28.47 0 27.63.5775 27.63 1.6485 27.63 2.709 28.344 3.15 30.003 3.15 31.053 3.15 31.515 3.3285 31.515 3.7485 31.515 4.242 31.0005 4.515 30.045 4.515zM36.4275 3.2025L39.1575 3.2025C40.1025 3.2025 40.7325 2.583 40.7325 1.68 40.7325.735 40.1025.105 39.1575.105L35.3775.105 35.3775 5.355 36.4275 5.355 36.4275 3.2025zM36.4275 1.05L39.1575 1.05C39.4725 1.05 39.6825 1.26 39.6825 1.575L39.6825 1.7325C39.6825 2.0475 39.4725 2.2575 39.1575 2.2575L36.4275 2.2575 36.4275 1.05zM48.6375 1.05L48.6375.105 43.4925.105 43.4925 5.355 48.6375 5.355 48.6375 4.41 44.5425 4.41 44.5425 3.2025 47.5875 3.2025 47.5875 2.2575 44.5425 2.2575 44.5425 1.05zM53.76 4.4625C52.815 4.4625 52.1325 3.7275 52.1325 2.73 52.1325 1.7325 52.815.9975 53.76.9975 54.5475.9975 55.1565 1.5015 55.335 2.2575L56.4585 2.2575C56.2485.924 55.1775 0 53.76 0 52.185 0 51.03 1.155 51.03 2.73 51.03 4.305 52.185 5.46 53.76 5.46 55.1775 5.46 56.2485 4.536 56.4585 3.2025L55.335 3.2025C55.1565 3.948 54.5475 4.4625 53.76 4.4625zM60.321 5.355L60.321.105 59.271.105 59.271 5.355zM64.0365 5.355L64.467 4.305 67.239 4.305 67.6695 5.355 68.8035 5.355 66.651.105 65.076.105 62.9235 5.355 64.0365 5.355zM64.8555 3.36L65.8005 1.05 65.9055 1.05 66.8505 3.36 64.8555 3.36zM71.406 5.355L75.606 5.355 75.606 4.41 72.456 4.41 72.456.105 71.406.105zM79.3635 5.355L79.3635.105 78.3135.105 78.3135 5.355zM84.696 4.515C83.814 4.515 83.226 4.221 83.226 3.78L82.176 3.78C82.176 4.788 83.184 5.46 84.696 5.46 86.334 5.46 87.216 4.8615 87.216 3.7485 87.216 2.6775 86.481 2.205 84.7485 2.205 83.751 2.205 83.331 2.0475 83.331 1.6485 83.331 1.1865 83.8035.945 84.696.945 85.515.945 86.061 1.239 86.061 1.68L87.111 1.68C87.111.672 86.145 0 84.696 0 83.121 0 82.281.5775 82.281 1.6485 82.281 2.709 82.995 3.15 84.654 3.15 85.704 3.15 86.166 3.3285 86.166 3.7485 86.166 4.242 85.6515 4.515 84.696 4.515zM89.451 1.05L91.551 1.05 91.551 5.355 92.601 5.355 92.601 1.05 94.701 1.05 94.701.105 89.451.105z" transform="translate(75.525 40.645)"/></g><path d="M0 0H62V62H0z"/></g><g fill="#171C2A" fill-rule="nonzero"><path d="M11.3188199 0L10.9013225 0 7.60773143 8.29902643C7.12065107 9.55215577 6.98148525 9.95410292 6.88870804 10.9235049L6.79593082 10.9235049C6.67995931 9.95410292 6.51759919 9.43393602 6.14649034 8.27538248L3.38636826.236439499 0 .236439499 6.49440488 17 7.00467955 17 10.5997965 8.15716273C10.9013225 7.37691238 10.9940997 6.90403338 11.0636826 6.21835883L11.1564598 6.21835883C11.2260427 6.90403338 11.3188199 7.37691238 11.6435402 8.15716273L15.2154629 17 15.7257375 17 22.2201424.236439499 18.8337742.236439499 16.0968464 8.27538248C15.7025432 9.43393602 15.5401831 9.95410292 15.4474059 10.9235049L15.3546287 10.9235049C15.2386572 9.95410292 15.0994914 9.55215577 14.612411 8.29902643L11.3188199 0zM38 .236439499L35.0311292.236439499 35.0311292 6.02920723C35.0311292 6.33657858 35.0543235 6.57301808 35.1239064 6.69123783L35.0775178 6.73852573C34.938352 6.66759388 34.7759919 6.64394993 34.4512716 6.64394993L28.0264496 6.64394993C27.7017294 6.64394993 27.5625636 6.66759388 27.4233978 6.73852573L27.3770092 6.69123783C27.4233978 6.57301808 27.4697864 6.33657858 27.4697864 6.02920723L27.4697864.236439499 24.5009156.236439499 24.5009156 16.7872045 27.4697864 16.7872045 27.4697864 10.0486787C27.4697864 9.74130737 27.4233978 9.50486787 27.3770092 9.38664812L27.4233978 9.33936022C27.5625636 9.41029207 27.7017294 9.45757997 28.0264496 9.45757997L34.4512716 9.45757997C34.7759919 9.45757997 34.938352 9.41029207 35.0775178 9.33936022L35.1239064 9.38664812C35.0543235 9.50486787 35.0311292 9.74130737 35.0311292 10.0486787L35.0311292 16.7872045 38 16.7872045 38 .236439499z" transform="translate(11 23)"/></g></g></symbol><symbol viewBox="0 0 150 152" id="svg-Group@1x"><g fill="none" fill-rule="evenodd"><circle fill="#97CAFA" cx="120" cy="22" r="18"/><circle fill="#FFF" cx="53" cy="18" r="18"/><path d="M92,36 C92,58.6436747 73.6436747,77 51,77 C28.3563253,77 10,58.6436747 10,36 L10,36 Z" stroke="#171C2A"/><path d="M150,77 C150,118.421356 116.421356,152 75,152 C33.5786438,152 0,118.421356 0,77 L0,77 Z" fill="#97CAFA"/><circle fill="#FFF" cx="120" cy="58" r="18"/></g></symbol><symbol viewBox="0 0 142 140" id="svg-Group_2@1x"><g transform="translate(1)" fill="none" fill-rule="evenodd"><path fill="#FFF" d="M0 0H141V54H0z"/><circle fill="#97CAFA" cx="98.5" cy="96.5" r="42.5"/><path stroke="#171C2A" stroke-width="1.109" d="M45.5555556 54L90 139 0 139z"/></g></symbol><symbol viewBox="0 0 144 144" id="svg-Group_3@1x"><g transform="translate(1 1)" fill="none" fill-rule="evenodd"><circle fill="#FFF" cx="119.5" cy="20.5" r="17.5"/><circle fill="#FFF" cx="20.5" cy="119.5" r="17.5"/><circle fill="#97CAFA" cx="71" cy="71" r="46"/><circle stroke="#171C2A" cx="71" cy="71" r="71"/></g></symbol><symbol viewBox="0 0 76 79" id="svg-Group_6@1x"><g fill="none" fill-rule="evenodd"><path fill="#FFF" d="M0 19.627H37V38.751H0z" transform="translate(1 2)"/><path fill="#97CAFA" d="M37 0H74V19.124H37z" transform="translate(1 2)"/><path stroke="#BFC1C2" d="M18.7283951 1.00653595L37 76.496732 0 76.496732zM55.7283951 1.00653595L74 76.496732 37 76.496732z" transform="translate(1 2)"/><path fill="#97CAFA" d="M0 57.876H37V77H0z" transform="translate(1 2)"/><path fill="#FFF" d="M37 38.752H74V57.876000000000005H37z" transform="translate(1 2)"/></g></symbol><symbol viewBox="0 0 84 87" id="svg-Group_7@1x"><g fill="none" fill-rule="evenodd"><path fill="#97CAFA" transform="rotate(90 13 21.75)" d="M14.2561728 6.75L34.75 34.75 -6.75 34.75z"/><path fill="#97CAFA" transform="rotate(90 13 63.25)" d="M14.2561728 48.25L34.75 76.25 -6.75 76.25z"/><path fill="#FFF" transform="rotate(90 54.5 42.5)" d="M56.0123457 14L97 69 14 69z"/><path stroke="#BFC1C2" transform="rotate(90 68.25 42.5)" d="M69.7623457 27.75L110.75 55.25 27.75 55.25z"/></g></symbol><symbol viewBox="0 0 83 83" id="svg-Group_8@1x"><g fill="none" fill-rule="evenodd"><path fill="#97CAFA" transform="rotate(90 14 20.75)" d="M14.2561728 6.75L34.75 34.75 -6.75 34.75z"/><path fill="#FFF" transform="rotate(90 42 41.75)" d="M42.2561728 27.75L62.75 55.75 21.25 55.75z"/><path fill="#97CAFA" transform="rotate(90 14 62.25)" d="M14.2561728 48.25L34.75 76.25 -6.75 76.25z"/><circle stroke="#BFC1C2" cx="55" cy="42" r="27"/></g></symbol><symbol viewBox="0 0 134 105" id="svg-Group_9@1x"><g fill="none" fill-rule="evenodd"><g fill="#FFF" fill-rule="nonzero"><path d="M9.76.08L9.4.08 6.56 7.1C6.14 8.16 6.02 8.5 5.94 9.32L5.86 9.32C5.76 8.5 5.62 8.06 5.3 7.08L2.92.28 0 .28 5.6 14.46 6.04 14.46 9.14 6.98C9.4 6.32 9.48 5.92 9.54 5.34L9.62 5.34C9.68 5.92 9.76 6.32 10.04 6.98L13.12 14.46 13.56 14.46 19.16.28 16.24.28 13.88 7.08C13.54 8.06 13.4 8.5 13.32 9.32L13.24 9.32C13.14 8.5 13.02 8.16 12.6 7.1L9.76.08zM17.7666667 14.28L20.6066667 14.28 22.0866667 10.96 27.3866667 10.96 28.8666667 14.28 31.7066667 14.28 24.9466667 0 24.5266667 0 17.7666667 14.28zM22.7266667 9L22.7066667 8.98C22.8666667 8.78 23.0866667 8.46 23.3066667 7.94L24.2266667 5.74C24.5066667 5.06 24.6666667 4.54 24.7066667 4.22L24.7866667 4.22C24.8066667 4.54 24.9666667 5.06 25.2466667 5.74L26.1666667 7.94C26.4066667 8.46 26.6066667 8.78 26.7666667 8.98L26.7466667 9C26.5466667 8.96 26.2466667 8.94 25.7266667 8.94L23.7466667 8.94C23.2266667 8.94 22.9266667 8.96 22.7266667 9zM38.8733333.28L33.9533333.28 33.9533333 14.28 36.5133333 14.28 36.5133333 8.94C36.5133333 8.62 36.4733333 8.36 36.3933333 8.16L36.4333333 8.12C36.5333333 8.18 36.6333333 8.2 36.8333333 8.22 36.9333333 8.24 37.0333333 8.24 37.1333333 8.24L41.7733333 14.28 44.9933333 14.28 40.8933333 9.16C40.3733333 8.52 39.9533333 8.18 39.3933333 8.02L39.3933333 7.94C39.5733333 8 39.7533333 8.02 39.9733333 8.02 41.6533333 8.02 43.3733333 6.46 43.3733333 4.24 43.3733333 1.74 41.6733333.28 38.8733333.28zM36.4733333 2.48C36.5933333 2.54 36.7333333 2.56 36.9933333 2.56L38.8733333 2.56C40.0933333 2.56 40.7333333 3.28 40.7333333 4.32 40.7333333 5.4 40.0533333 6.04 38.8733333 6.04L36.9933333 6.04C36.7333333 6.04 36.5933333 6.06 36.4733333 6.12L36.4333333 6.08C36.4733333 5.98 36.5133333 5.8 36.5133333 5.54L36.5133333 3.08C36.5133333 2.82 36.4733333 2.62 36.4333333 2.52L36.4733333 2.48zM51.88.28L46.96.28 46.96 14.28 49.52 14.28 49.52 8.94C49.52 8.62 49.48 8.36 49.4 8.16L49.44 8.12C49.54 8.18 49.64 8.2 49.84 8.22 49.94 8.24 50.04 8.24 50.14 8.24L54.78 14.28 58 14.28 53.9 9.16C53.38 8.52 52.96 8.18 52.4 8.02L52.4 7.94C52.58 8 52.76 8.02 52.98 8.02 54.66 8.02 56.38 6.46 56.38 4.24 56.38 1.74 54.68.28 51.88.28zM49.48 2.48C49.6 2.54 49.74 2.56 50 2.56L51.88 2.56C53.1 2.56 53.74 3.28 53.74 4.32 53.74 5.4 53.06 6.04 51.88 6.04L50 6.04C49.74 6.04 49.6 6.06 49.48 6.12L49.44 6.08C49.48 5.98 49.52 5.8 49.52 5.54L49.52 3.08C49.52 2.82 49.48 2.62 49.44 2.52L49.48 2.48zM68.2466667.28L59.9666667.28 59.9666667 14.28 68.3266667 14.28 68.3266667 11.94 63.0066667 11.94C62.7266667 11.94 62.6066667 11.98 62.4866667 12.04L62.4466667 12C62.4866667 11.9 62.5266667 11.7 62.5266667 11.44L62.5266667 8.44C62.5266667 8.18 62.4866667 7.98 62.4466667 7.88L62.4866667 7.84C62.6066667 7.9 62.7266667 7.94 63.0066667 7.94L67.6466667 7.94 67.6466667 5.62 63.0066667 5.62C62.7266667 5.62 62.6066667 5.64 62.4866667 5.7L62.4466667 5.66C62.4866667 5.56 62.5266667 5.36 62.5266667 5.1L62.5266667 3.12C62.5266667 2.86 62.4866667 2.66 62.4466667 2.56L62.4866667 2.52C62.6066667 2.58 62.7266667 2.62 63.0066667 2.62L68.2466667 2.62 68.2466667.28zM71.6133333.08L71.2133333.08 71.2133333 14.28 73.7533333 14.28 73.7533333 7.62C73.7533333 6.42 73.6733333 5.6 73.5333333 5.14L73.6133333 5.12C73.8133333 5.56 74.1333333 6.04 74.6333333 6.54L82.5733333 14.48 82.9933333 14.48 82.9933333.28 80.4333333.28 80.4333333 6.94C80.4333333 8.14 80.5133333 8.96 80.6533333 9.42L80.5733333 9.44C80.3733333 9 80.0533333 8.52 79.5733333 8.02L71.6133333.08zM104.446667.28L101.886667.28 101.886667 5.18C101.886667 5.44 101.906667 5.64 101.966667 5.74L101.926667 5.78C101.806667 5.72 101.666667 5.7 101.386667 5.7L95.8466667 5.7C95.5666667 5.7 95.4466667 5.72 95.3266667 5.78L95.2866667 5.74C95.3266667 5.64 95.3666667 5.44 95.3666667 5.18L95.3666667.28 92.8066667.28 92.8066667 14.28 95.3666667 14.28 95.3666667 8.58C95.3666667 8.32 95.3266667 8.12 95.2866667 8.02L95.3266667 7.98C95.4466667 8.04 95.5666667 8.08 95.8466667 8.08L101.386667 8.08C101.666667 8.08 101.806667 8.04 101.926667 7.98L101.966667 8.02C101.906667 8.12 101.886667 8.32 101.886667 8.58L101.886667 14.28 104.446667 14.28 104.446667.28zM110.513333.28L107.953333.28 107.953333 14.28 110.513333 14.28zM116.56.28L114 .28 114 14.28 122.38 14.28 122.38 11.9 117.04 11.9C116.76 11.9 116.64 11.92 116.52 11.98L116.48 11.94C116.52 11.84 116.56 11.66 116.56 11.4L116.56.28zM127.186667.28L124.626667.28 124.626667 14.28 133.006667 14.28 133.006667 11.9 127.666667 11.9C127.386667 11.9 127.266667 11.92 127.146667 11.98L127.106667 11.94C127.146667 11.84 127.186667 11.66 127.186667 11.4L127.186667.28z" transform="translate(.163 73.72)"/></g><path fill="#FFF" d="M38.837 0H94.837V56H38.837z" transform="translate(.163)"/><g fill="#171C2A" fill-rule="nonzero"><path d="M10.1273652 0L9.75381485 0 6.8069176 7.32267038C6.37110885 8.42837274 6.24659207 8.78303199 6.16358087 9.63838665L6.08056968 9.63838665C5.9768057 8.78303199 5.83153611 8.3240612 5.49949135 7.30180807L3.02990844.208623088 0 .208623088 5.81078332 15 6.26734486 15 9.48402848 7.19749652C9.75381485 6.50904033 9.83682604 6.09179416 9.89908444 5.4867872L9.98209563 5.4867872C10.044354 6.09179416 10.1273652 6.50904033 10.4179044 7.19749652L13.6138352 15 14.0703967 15 19.8811801.208623088 16.8512716.208623088 14.4024415 7.30180807C14.0496439 8.3240612 13.9043744 8.78303199 13.8213632 9.63838665L13.738352 9.63838665C13.634588 8.78303199 13.5100712 8.42837274 13.0742625 7.32267038L10.1273652 0zM34 .208623088L31.3436419.208623088 31.3436419 5.31988873C31.3436419 5.59109875 31.3643947 5.79972184 31.4266531 5.90403338L31.3851475 5.945758C31.2606307 5.88317107 31.1153611 5.86230876 30.824822 5.86230876L25.076297 5.86230876C24.7857579 5.86230876 24.6612411 5.88317107 24.5367243 5.945758L24.4952187 5.90403338C24.5367243 5.79972184 24.5782299 5.59109875 24.5782299 5.31988873L24.5782299.208623088 21.9218718.208623088 21.9218718 14.8122392 24.5782299 14.8122392 24.5782299 8.86648122C24.5782299 8.59527121 24.5367243 8.38664812 24.4952187 8.28233658L24.5367243 8.24061196C24.6612411 8.30319889 24.7857579 8.3449235 25.076297 8.3449235L30.824822 8.3449235C31.1153611 8.3449235 31.2606307 8.30319889 31.3851475 8.24061196L31.4266531 8.28233658C31.3643947 8.38664812 31.3436419 8.59527121 31.3436419 8.86648122L31.3436419 14.8122392 34 14.8122392 34 .208623088z" transform="translate(49 21)"/></g><g fill="#97CAFA" fill-rule="nonzero"><path d="M2.52 4.515C1.638 4.515 1.05 4.221 1.05 3.78L0 3.78C0 4.788 1.008 5.46 2.52 5.46 4.158 5.46 5.04 4.8615 5.04 3.7485 5.04 2.6775 4.305 2.205 2.5725 2.205 1.575 2.205 1.155 2.0475 1.155 1.6485 1.155 1.1865 1.6275.945 2.52.945 3.339.945 3.885 1.239 3.885 1.68L4.935 1.68C4.935.672 3.969 0 2.52 0 .945 0 .105.5775.105 1.6485.105 2.709.819 3.15 2.478 3.15 3.528 3.15 3.99 3.3285 3.99 3.7485 3.99 4.242 3.4755 4.515 2.52 4.515zM12.9975 1.05L12.9975.105 7.8525.105 7.8525 5.355 12.9975 5.355 12.9975 4.41 8.9025 4.41 8.9025 3.2025 11.9475 3.2025 11.9475 2.2575 8.9025 2.2575 8.9025 1.05zM18.12 0C16.545 0 15.39 1.155 15.39 2.73 15.39 4.305 16.545 5.46 18.12 5.46 19.695 5.46 20.85 4.305 20.85 2.73 20.85 1.155 19.695 0 18.12 0zM18.12 4.4625C17.175 4.4625 16.4925 3.7275 16.4925 2.73 16.4925 1.7325 17.175.9975 18.12.9975 19.065.9975 19.7475 1.7325 19.7475 2.73 19.7475 3.7275 19.065 4.4625 18.12 4.4625zM30.045 4.515C29.163 4.515 28.575 4.221 28.575 3.78L27.525 3.78C27.525 4.788 28.533 5.46 30.045 5.46 31.683 5.46 32.565 4.8615 32.565 3.7485 32.565 2.6775 31.83 2.205 30.0975 2.205 29.1 2.205 28.68 2.0475 28.68 1.6485 28.68 1.1865 29.1525.945 30.045.945 30.864.945 31.41 1.239 31.41 1.68L32.46 1.68C32.46.672 31.494 0 30.045 0 28.47 0 27.63.5775 27.63 1.6485 27.63 2.709 28.344 3.15 30.003 3.15 31.053 3.15 31.515 3.3285 31.515 3.7485 31.515 4.242 31.0005 4.515 30.045 4.515zM36.4275 3.2025L39.1575 3.2025C40.1025 3.2025 40.7325 2.583 40.7325 1.68 40.7325.735 40.1025.105 39.1575.105L35.3775.105 35.3775 5.355 36.4275 5.355 36.4275 3.2025zM36.4275 1.05L39.1575 1.05C39.4725 1.05 39.6825 1.26 39.6825 1.575L39.6825 1.7325C39.6825 2.0475 39.4725 2.2575 39.1575 2.2575L36.4275 2.2575 36.4275 1.05zM48.6375 1.05L48.6375.105 43.4925.105 43.4925 5.355 48.6375 5.355 48.6375 4.41 44.5425 4.41 44.5425 3.2025 47.5875 3.2025 47.5875 2.2575 44.5425 2.2575 44.5425 1.05zM53.76 4.4625C52.815 4.4625 52.1325 3.7275 52.1325 2.73 52.1325 1.7325 52.815.9975 53.76.9975 54.5475.9975 55.1565 1.5015 55.335 2.2575L56.4585 2.2575C56.2485.924 55.1775 0 53.76 0 52.185 0 51.03 1.155 51.03 2.73 51.03 4.305 52.185 5.46 53.76 5.46 55.1775 5.46 56.2485 4.536 56.4585 3.2025L55.335 3.2025C55.1565 3.948 54.5475 4.4625 53.76 4.4625zM60.321 5.355L60.321.105 59.271.105 59.271 5.355zM64.0365 5.355L64.467 4.305 67.239 4.305 67.6695 5.355 68.8035 5.355 66.651.105 65.076.105 62.9235 5.355 64.0365 5.355zM64.8555 3.36L65.8005 1.05 65.9055 1.05 66.8505 3.36 64.8555 3.36zM71.406 5.355L75.606 5.355 75.606 4.41 72.456 4.41 72.456.105 71.406.105zM79.3635 5.355L79.3635.105 78.3135.105 78.3135 5.355zM84.696 4.515C83.814 4.515 83.226 4.221 83.226 3.78L82.176 3.78C82.176 4.788 83.184 5.46 84.696 5.46 86.334 5.46 87.216 4.8615 87.216 3.7485 87.216 2.6775 86.481 2.205 84.7485 2.205 83.751 2.205 83.331 2.0475 83.331 1.6485 83.331 1.1865 83.8035.945 84.696.945 85.515.945 86.061 1.239 86.061 1.68L87.111 1.68C87.111.672 86.145 0 84.696 0 83.121 0 82.281.5775 82.281 1.6485 82.281 2.709 82.995 3.15 84.654 3.15 85.704 3.15 86.166 3.3285 86.166 3.7485 86.166 4.242 85.6515 4.515 84.696 4.515zM89.451 1.05L91.551 1.05 91.551 5.355 92.601 5.355 92.601 1.05 94.701 1.05 94.701.105 89.451.105z" transform="translate(19.952 98.645)"/></g></g></symbol><symbol viewBox="0 0 15 37" id="svg-arrow@1x"><path d="M1404.25,614.75 L1404.25,646.262 L1408.47132,638.757304 L1408.83901,638.103622 L1410.14638,638.839014 L1409.77868,639.492696 L1404.15368,649.492696 L1403.5,650.654797 L1402.84632,649.492696 L1397.22132,639.492696 L1396.85362,638.839014 L1398.16099,638.103622 L1398.52868,638.757304 L1402.75,646.262 L1402.75,614.75 L1404.25,614.75 Z" transform="translate(-1396 -614)" fill="#97CAFA" fill-rule="nonzero"/></symbol></svg>